HIERARCHY
ROOT Hips
{
	OFFSET 0.00000 0.00000 0.00000
	CHANNELS 6 Xposition Yposition Zposition Zrotation Yrotation Xrotation 
	JOINT LHipJoint
	{
		OFFSET 0 0 0
		CHANNELS 3 Zrotation Yrotation Xrotation
		JOINT LeftUpLeg
		{
			OFFSET 1.66553 -1.82942 0.76350
			CHANNELS 3 Zrotation Yrotation Xrotation
			JOINT LeftLeg
			{
				OFFSET 2.41740 -6.64177 0.00000
				CHANNELS 3 Zrotation Yrotation Xrotation
				JOINT LeftFoot
				{
					OFFSET 2.71614 -7.46254 0.00000
					CHANNELS 3 Zrotation Yrotation Xrotation
					JOINT LeftToeBase
					{
						OFFSET 0.08005 -0.21993 1.82495
						CHANNELS 3 Zrotation Yrotation Xrotation
						End Site
						{
							OFFSET 0.00000 -0.00000 0.93441
						}
					}
				}
			}
		}
	}
	JOINT RHipJoint
	{
		OFFSET 0 0 0
		CHANNELS 3 Zrotation Yrotation Xrotation
		JOINT RightUpLeg
		{
			OFFSET -1.63725 -1.82942 0.76350
			CHANNELS 3 Zrotation Yrotation Xrotation
			JOINT RightLeg
			{
				OFFSET -2.40538 -6.60872 0.00000
				CHANNELS 3 Zrotation Yrotation Xrotation
				JOINT RightFoot
				{
					OFFSET -2.73312 -7.50919 0.00000
					CHANNELS 3 Zrotation Yrotation Xrotation
					JOINT RightToeBase
					{
						OFFSET -0.15567 -0.42769 1.93504
						CHANNELS 3 Zrotation Yrotation Xrotation
						End Site
						{
							OFFSET -0.00000 -0.00000 1.00100
						}
					}
				}
			}
		}
	}
	JOINT LowerBack
	{
		OFFSET 0 0 0
		CHANNELS 3 Zrotation Yrotation Xrotation
		JOINT Spine
		{
			OFFSET 0.00326 2.30118 -0.13017
			CHANNELS 3 Zrotation Yrotation Xrotation
			JOINT Spine1
			{
				OFFSET 0.02887 2.30677 0.00834
				CHANNELS 3 Zrotation Yrotation Xrotation
				JOINT Neck
				{
					OFFSET 0 0 0
					CHANNELS 3 Zrotation Yrotation Xrotation
					JOINT Neck1
					{
						OFFSET 0.12946 1.68326 0.00713
						CHANNELS 3 Zrotation Yrotation Xrotation
						JOINT Head
						{
							OFFSET -0.24364 1.67243 -0.16079
							CHANNELS 3 Zrotation Yrotation Xrotation
							End Site
							{
								OFFSET -0.09229 1.70819 -0.06383
							}
						}
					}
				}
				JOINT LeftShoulder
				{
					OFFSET 0 0 0
					CHANNELS 3 Zrotation Yrotation Xrotation
					JOINT LeftArm
					{
						OFFSET 3.28104 0.69567 -0.00556
						CHANNELS 3 Zrotation Yrotation Xrotation
						JOINT LeftForeArm
						{
							OFFSET 5.70706 -0.00000 -0.00000
							CHANNELS 3 Zrotation Yrotation Xrotation
							JOINT LeftHand
							{
								OFFSET 3.33243 -0.00000 0.00000
								CHANNELS 3 Zrotation Yrotation Xrotation
								JOINT LeftFingerBase
								{
									OFFSET 0 0 0
									CHANNELS 3 Zrotation Yrotation Xrotation
									JOINT LeftHandIndex1
									{
										OFFSET 0.79269 -0.00000 0.00000
										CHANNELS 3 Zrotation Yrotation Xrotation
										End Site
										{
											OFFSET 0.63909 -0.00000 0.00000
										}
									}
								}
								JOINT LThumb
								{
									OFFSET 0 0 0
									CHANNELS 3 Zrotation Yrotation Xrotation
									End Site
									{
										OFFSET 0.64884 -0.00000 0.64884
									}
								}
							}
						}
					}
				}
				JOINT RightShoulder
				{
					OFFSET 0 0 0
					CHANNELS 3 Zrotation Yrotation Xrotation
					JOINT RightArm
					{
						OFFSET -3.40955 0.64424 0.14010
						CHANNELS 3 Zrotation Yrotation Xrotation
						JOINT RightForeArm
						{
							OFFSET -5.88176 -0.00000 -0.00000
							CHANNELS 3 Zrotation Yrotation Xrotation
							JOINT RightHand
							{
								OFFSET -3.28156 -0.00000 0.00000
								CHANNELS 3 Zrotation Yrotation Xrotation
								JOINT RightFingerBase
								{
									OFFSET 0 0 0
									CHANNELS 3 Zrotation Yrotation Xrotation
									JOINT RightHandIndex1
									{
										OFFSET -0.86313 -0.00000 0.00000
										CHANNELS 3 Zrotation Yrotation Xrotation
										End Site
										{
											OFFSET -0.69587 -0.00000 0.00000
										}
									}
								}
								JOINT RThumb
								{
									OFFSET 0 0 0
									CHANNELS 3 Zrotation Yrotation Xrotation
									End Site
									{
										OFFSET -0.70650 -0.00000 0.70650
									}
								}
							}
						}
					}
				}
			}
		}
	}
}
MOTION
Frames: 16
Frame Time: .0083333
16.8585 16.1113 -3.5302 0 0 0 0 0 0 -21 0 0 0 0 0 0 0 0 0 0 0 0 0 0 21 0 0 0 0 0 0 0 0 0 0 0 0 0 0 0 0 0 0 0 0 0 0 -16 0 0 21 0 0 11 0 0 0 -8 0 0 0 0 0 0 0 0 0 0 0 0 0 0 0 0 0 0 0 0 8 0 0 0 0 0 0 0 0 0 0 0 0 0 0 0 0 0
16.8585 16.1113 -3.5302 -5.6386 -5.3709 -3.0164 0.0000 0.0000 0.0000 -2.8337 -2.2849 -13.2970 8.8076 16.6823 55.4224 3.8972 -7.5262 -36.0429 2.5150 -9.8651 -28.5411 0.0000 0.0000 0.0000 9.2504 16.1431 -10.3998 -6.0324 -14.4597 45.1116 -3.0390 6.6035 -31.6998 -2.2482 9.3650 -26.9437 -0.0704 -3.5729 3.2764 4.8519 -4.6175 -2.1665 5.3600 -2.2421 -3.6682 18.6272 7.4812 7.3233 -23.7494 8.8944 -19.8684 -11.5455 4.9597 -4.8341 -0.0000 -0.0000 0.0000 -89.3255 17.7677 24.8702 128.1448 -53.7169 -92.3372 -0.0000 0.0000 -8.5373 -13.4961 27.3978 -6.3023 -7.1250 0.0000 -0.0000 -43.6734 51.9767 -8.9123 -0.0000 -0.0000 0.0000 85.5194 -9.3386 10.3642 -124.4182 55.0128 -89.3079 0.0000 -0.0000 -26.3945 -24.5890 -0.6947 0.3179 7.1250 -0.0000 -0.0000 1.5716 -30.7417 0.5476
16.8958 16.1136 -3.5288 -5.7957 -5.7124 -3.0220 0.0000 0.0000 0.0000 -2.8330 -2.1232 -13.2261 8.8384 16.7026 55.5296 3.9324 -7.5939 -36.2078 2.4406 -9.7292 -28.1040 0.0000 0.0000 0.0000 9.2745 16.2014 -10.3212 -5.9577 -14.3872 44.8118 -3.0100 6.5702 -31.5439 -2.4358 9.7201 -28.0751 -0.0305 -3.4365 3.4020 4.9368 -4.4240 -2.2513 5.4311 -2.1414 -3.8415 18.2768 7.3638 7.5233 -23.5563 8.7287 -19.9171 -11.4378 4.8954 -4.9576 -0.0000 -0.0000 0.0000 -89.5478 18.7976 24.0818 128.2574 -53.6746 -92.4280 -0.0000 0.0000 -9.1567 -12.7444 27.8365 -6.0288 -7.1250 0.0000 -0.0000 -43.3907 52.4457 -9.3927 -0.0000 -0.0000 0.0000 85.0704 -9.1253 10.8539 -124.6429 54.9401 -89.4919 0.0000 -0.0000 -26.6630 -24.3543 -1.2919 0.5847 7.1250 -0.0000 -0.0000 1.7739 -31.3948 0.5904
16.9367 16.1149 -3.5262 -5.8618 -6.0050 -3.0094 0.0000 0.0000 0.0000 -2.9541 -1.9981 -13.1906 8.8732 16.7254 55.6506 3.9848 -7.5927 -36.4630 2.3839 -9.6237 -27.7667 0.0000 0.0000 0.0000 9.1899 16.3133 -10.2157 -5.8872 -14.3182 44.5275 -2.9796 6.7535 -31.3556 -2.3982 9.6505 -27.8521 0.0178 -3.1870 3.3677 4.8272 -4.0981 -2.0672 5.2581 -1.9858 -3.6713 18.6381 7.2862 6.6888 -23.7177 8.5425 -19.6630 -11.4915 4.7539 -4.7408 -0.0000 -0.0000 0.0000 -89.3266 19.2488 23.7924 128.3798 -53.6284 -92.5266 -0.0000 0.0000 -9.9623 -11.5370 28.4635 -5.5566 -7.1250 0.0000 -0.0000 -42.8706 53.1447 -10.0544 -0.0000 -0.0000 0.0000 84.9905 -8.4881 10.9810 -124.7277 54.9125 -89.5613 0.0000 -0.0000 -26.9673 -24.4730 -1.2908 0.5875 7.1250 -0.0000 -0.0000 1.6790 -31.3953 0.5587
16.9777 16.1181 -3.5193 -6.0707 -6.1962 -2.9695 0.0000 0.0000 0.0000 -2.8758 -1.8493 -13.2009 8.9126 16.7512 55.7875 4.0254 -7.7875 -36.6400 2.3075 -9.4791 -27.3058 0.0000 0.0000 0.0000 9.3153 16.5077 -10.0489 -5.8250 -14.2566 44.2754 -2.9533 6.8388 -31.2006 -2.3180 9.4992 -27.3697 0.2941 -3.0570 3.2952 4.7018 -3.9162 -2.0374 4.9544 -1.9037 -3.6422 18.7422 7.1671 6.6364 -23.5241 8.4032 -19.6970 -11.4446 4.6605 -4.7833 -0.0000 -0.0000 0.0000 -89.1115 20.1270 23.2948 128.6592 -53.5221 -92.7514 -0.0000 0.0000 -10.9375 -11.1038 29.2567 -5.4789 -7.1250 0.0000 -0.0000 -43.1647 53.8327 -10.9464 -0.0000 -0.0000 0.0000 84.9496 -8.2729 11.3715 -124.8577 54.8700 -89.6677 0.0000 -0.0000 -27.3304 -24.7512 -1.1841 0.5458 7.1250 -0.0000 -0.0000 1.4539 -31.2816 0.4877
17.0157 16.1168 -3.5137 -6.2225 -6.5704 -2.8443 0.0000 0.0000 0.0000 -2.8406 -1.5298 -13.3285 8.9577 16.7804 55.9436 4.0495 -7.6300 -36.7722 2.3921 -9.6391 -27.8157 0.0000 0.0000 0.0000 9.3449 16.8679 -10.0454 -5.7673 -14.1989 44.0403 -2.9309 6.7429 -31.0860 -2.4144 9.6806 -27.9484 0.4510 -2.8846 3.2593 4.6342 -3.6772 -2.1205 4.7836 -1.7866 -3.7416 18.6753 7.0812 6.6042 -23.3002 8.3155 -19.5519 -11.3413 4.6040 -4.7757 -0.0000 0.0000 0.0000 -89.0708 21.2452 22.6554 129.0216 -53.3826 -93.0425 -0.0000 0.0000 -11.8510 -11.0745 30.1593 -5.6162 -7.1250 0.0000 -0.0000 -43.9290 54.5243 -12.0182 -0.0000 0.0000 0.0000 84.8263 -8.1203 11.8224 -124.8048 54.8874 -89.6244 0.0000 -0.0000 -27.1976 -25.2004 -1.0870 0.5115 7.1250 -0.0000 -0.0000 1.0932 -31.1800 0.3694
17.0529 16.1104 -3.5066 -6.2954 -7.0055 -2.7514 0.0000 0.0000 0.0000 -2.8976 -1.2065 -13.4305 9.0035 16.8100 56.1023 4.0699 -7.6176 -36.8718 2.3785 -9.6137 -27.7345 0.0000 0.0000 0.0000 9.2631 17.2075 -10.0637 -5.7084 -14.1397 43.7999 -2.9076 6.6965 -30.9608 -2.4822 9.8054 -28.3488 0.4922 -2.6737 3.2293 4.5590 -3.3945 -2.1600 4.6654 -1.6462 -3.7942 18.7713 6.9954 6.4493 -23.2658 8.2026 -19.4117 -11.3298 4.5329 -4.7300 0.0000 0.0000 0.0000 -88.9800 22.1721 22.0847 129.2796 -53.2820 -93.2494 -0.0000 0.0000 -12.9226 -10.6147 30.9015 -5.4976 -7.1250 0.0000 -0.0000 -44.1988 55.1740 -12.8760 0.0000 0.0000 0.0000 84.7881 -7.8368 12.1410 -124.6050 54.9524 -89.4609 0.0000 -0.0000 -26.8953 -25.5546 -0.9227 0.4412 7.1250 -0.0000 -0.0000 0.8079 -31.0020 0.2764
17.0926 16.1110 -3.4964 -6.5881 -7.0610 -2.7889 0.0000 0.0000 0.0000 -2.7089 -1.1847 -13.3803 9.0416 16.8344 56.2338 4.0912 -8.0711 -36.9287 2.1945 -9.2599 -26.6119 0.0000 0.0000 0.0000 9.5003 17.1983 -9.8206 -5.6417 -14.0719 43.5262 -2.8908 6.7189 -30.8643 -2.4261 9.7023 -28.0180 0.7810 -2.6217 3.2695 4.5322 -3.3097 -2.1546 4.4721 -1.6111 -3.8356 18.7195 6.8841 6.5434 -23.1100 8.0582 -19.5605 -11.2868 4.4565 -4.8384 0.0000 -0.0000 0.0000 -88.8358 22.9742 21.5408 129.5322 -53.1824 -93.4518 -0.0000 0.0000 -14.3803 -9.2613 31.4213 -4.8589 -7.1250 0.0000 -0.0000 -43.4843 55.8383 -13.3554 0.0000 -0.0000 0.0000 84.7517 -7.5792 12.3568 -124.6035 54.9529 -89.4597 0.0000 -0.0000 -27.1024 -25.5311 -0.8053 0.3846 7.1250 -0.0000 -0.0000 0.8248 -30.8717 0.2847
17.1305 16.1153 -3.4906 -6.8045 -7.0723 -2.6971 0.0000 0.0000 0.0000 -2.6070 -1.1748 -13.4872 9.0678 16.8512 56.3245 4.0970 -8.3338 -36.9327 2.0920 -9.0552 -25.9682 0.0000 0.0000 0.0000 9.6261 17.2590 -9.6857 -5.5667 -13.9948 43.2168 -2.8646 6.8172 -30.7065 -2.3434 9.5474 -27.5232 0.9297 -2.5998 3.1931 4.5561 -3.2730 -2.1993 4.4088 -1.5960 -3.8483 18.5256 6.7636 6.6629 -22.9127 7.8942 -19.6831 -11.2030 4.3779 -4.9580 -0.0000 0.0000 0.0000 -88.8494 23.7431 20.9396 129.8279 -53.0647 -93.6884 -0.0000 0.0000 -15.8996 -7.8876 31.9619 -4.1944 -7.1250 0.0000 -0.0000 -42.7663 56.5309 -13.8331 -0.0000 0.0000 0.0000 84.4928 -7.3872 12.6476 -124.6353 54.9426 -89.4857 0.0000 -0.0000 -27.1714 -25.9851 -0.5330 0.2598 7.1250 -0.0000 -0.0000 0.4610 -30.5725 0.1624
17.1660 16.1165 -3.4920 -6.8238 -7.1657 -2.7011 0.0000 0.0000 0.0000 -2.7167 -1.0637 -13.5340 9.0818 16.8601 56.3725 4.0838 -8.4396 -36.8601 1.9873 -8.8396 -25.2947 0.0000 0.0000 0.0000 9.5570 17.4337 -9.5116 -5.4879 -13.9130 42.8901 -2.8236 6.6812 -30.4890 -2.4312 9.7117 -28.0482 0.8458 -2.5206 3.3371 4.4946 -3.1651 -2.2756 4.3969 -1.5381 -4.0153 18.5731 6.6076 6.6984 -22.8381 7.6991 -19.6635 -11.1918 4.2744 -5.0063 0.0000 -0.0000 0.0000 -88.8218 24.4218 20.3157 129.9026 -53.0347 -93.7481 -0.0000 0.0000 -17.4301 -7.1064 32.6167 -3.8445 -7.1250 0.0000 -0.0000 -42.6966 57.1928 -14.5248 0.0000 -0.0000 0.0000 84.2987 -7.3434 13.0103 -124.5671 54.9647 -89.4299 0.0000 -0.0000 -26.9610 -26.7537 -0.2953 0.1489 7.1250 -0.0000 -0.0000 -0.1489 -30.3105 -0.0534
17.2078 16.1242 -3.4884 -6.9238 -7.3548 -2.8554 0.0000 0.0000 0.0000 -2.7507 -0.8282 -13.3779 9.0902 16.8654 56.4016 4.0896 -8.6321 -36.8718 1.8362 -8.5163 -24.2935 0.0000 0.0000 0.0000 9.6251 17.6459 -9.1702 -5.4124 -13.8337 42.5755 -2.7712 6.5416 -30.2054 -2.5131 9.8618 -28.5302 0.9801 -2.4019 3.6138 4.3664 -2.9935 -2.2641 4.1913 -1.4558 -4.1851 18.7125 6.4959 6.5905 -22.7907 7.5531 -19.6319 -11.1953 4.1845 -5.0075 -0.0000 -0.0000 0.0000 -88.6456 25.0623 19.6900 130.0463 -52.9768 -93.8628 -0.0000 0.0000 -18.9903 -6.6064 33.0146 -3.6108 -7.1250 0.0000 -0.0000 -42.6379 57.6021 -14.9408 -0.0000 -0.0000 0.0000 84.2797 -7.2666 13.2568 -124.4259 55.0103 -89.3142 0.0000 -0.0000 -26.8049 -27.0409 -0.2492 0.1272 7.1250 -0.0000 -0.0000 -0.3760 -30.2595 -0.1353
17.2535 16.1365 -3.4784 -6.9463 -7.6454 -2.7561 0.0000 0.0000 0.0000 -2.9186 -0.5704 -13.4358 9.1015 16.8726 56.4406 4.1119 -8.9669 -36.9523 1.6814 -8.1684 -23.2266 0.0000 0.0000 0.0000 9.5025 18.0013 -9.0952 -5.3451 -13.7621 42.2929 -2.7161 6.9494 -29.8476 -2.3270 9.5163 -27.4243 1.0740 -2.2652 3.4576 4.2350 -2.8171 -2.2202 3.9791 -1.3736 -4.0726 18.8603 6.4416 6.4408 -22.8281 7.4621 -19.6636 -11.2317 4.1253 -5.0009 -0.0000 0.0000 0.0000 -88.5102 25.6115 18.9159 130.3310 -52.8611 -94.0899 -0.0000 0.0000 -20.3121 -6.7970 33.3694 -3.7509 -7.1250 0.0000 -0.0000 -43.1719 57.8281 -15.4245 -0.0000 0.0000 0.0000 84.3099 -7.0565 13.4556 -124.3680 55.0289 -89.2668 0.0000 -0.0000 -26.3721 -27.3633 -0.3237 0.1675 7.1250 -0.0000 -0.0000 -0.6313 -30.3440 -0.2259
17.2932 16.1381 -3.4754 -6.9878 -7.6122 -2.5525 0.0000 0.0000 0.0000 -3.0195 -0.5938 -13.7097 9.1270 16.8888 56.5285 4.1096 -9.2889 -36.9188 1.6226 -8.0312 -22.8089 0.0000 0.0000 0.0000 9.3908 18.1840 -9.1170 -5.2857 -13.6984 42.0427 -2.6653 7.1404 -29.5360 -2.1748 9.2210 -26.4891 1.0677 -2.2382 3.2124 4.1604 -2.7924 -2.2236 3.8905 -1.3634 -3.9418 18.9647 6.3725 6.3966 -22.8724 7.3525 -19.7691 -11.2757 4.0646 -5.0414 -0.0000 0.0000 0.0000 -88.4583 26.0589 18.1324 130.5664 -52.7645 -94.2775 -0.0000 0.0000 -21.8591 -6.6678 33.8532 -3.7260 -7.1250 0.0000 -0.0000 -43.5551 58.2193 -16.0261 -0.0000 0.0000 0.0000 84.3329 -6.8850 13.6144 -124.3346 55.0397 -89.2394 0.0000 -0.0000 -26.0466 -27.6735 -0.3457 0.1813 7.1250 -0.0000 -0.0000 -0.8770 -30.3696 -0.3133
17.3311 16.1306 -3.4712 -7.1404 -7.5271 -2.5625 0.0000 0.0000 0.0000 -2.9672 -0.5680 -13.7757 9.1634 16.9117 56.6536 4.1288 -9.1310 -37.0212 1.8094 -8.4572 -24.1117 0.0000 0.0000 0.0000 9.4989 18.3242 -8.8847 -5.2352 -13.6439 41.8292 -2.6453 6.8824 -29.4435 -2.1778 9.2270 -26.5079 1.1770 -2.2301 3.2493 4.1342 -2.7747 -2.2446 3.8034 -1.3573 -3.9921 18.8738 6.2939 6.4221 -22.7909 7.2430 -19.7830 -11.2354 4.0118 -5.0851 -0.0000 0.0000 0.0000 -88.4765 26.5775 17.4582 130.8347 -52.6533 -94.4909 -0.0000 0.0000 -23.5962 -5.9637 34.3072 -3.3696 -7.1250 0.0000 -0.0000 -43.3913 58.7172 -16.4876 -0.0000 0.0000 0.0000 84.2187 -6.8367 13.7154 -124.1714 55.0918 -89.1056 0.0000 -0.0000 -26.0638 -27.8284 -0.1194 0.0630 7.1250 -0.0000 -0.0000 -0.9973 -30.1140 -0.3624
17.3741 16.1241 -3.4650 -7.0831 -7.6733 -2.5869 0.0000 0.0000 0.0000 -3.2183 -0.4258 -13.8018 9.2021 16.9360 56.7865 4.1606 -8.6716 -37.2074 2.0085 -8.8838 -25.4324 0.0000 0.0000 0.0000 9.3359 18.6122 -8.7364 -5.1946 -13.5997 41.6570 -2.6431 6.4453 -29.4744 -2.2891 9.4439 -27.1939 1.1633 -2.1228 3.2919 4.0142 -2.6328 -2.2762 3.6802 -1.2869 -4.0615 18.7679 6.2086 6.4077 -22.6229 7.1350 -19.7404 -11.1535 3.9527 -5.1109 0.0000 -0.0000 0.0000 -88.3772 26.9752 16.8412 131.0029 -52.5829 -94.6246 -0.0000 0.0000 -24.9129 -6.0140 34.9988 -3.4579 -7.1250 0.0000 -0.0000 -44.1912 59.2191 -17.4211 0.0000 -0.0000 0.0000 84.1028 -7.0041 13.9064 -124.0767 55.1220 -89.0279 0.0000 -0.0000 -26.1030 -28.5378 0.0035 -0.0019 7.1250 -0.0000 -0.0000 -1.5552 -29.9740 -0.5704
17.4170 16.1177 -3.4644 -7.0318 -7.6551 -2.4965 0.0000 0.0000 0.0000 -3.4467 -0.4604 -14.0355 9.2519 16.9671 56.9572 4.1707 -8.4711 -37.2718 2.0922 -9.0555 -25.9691 0.0000 0.0000 0.0000 9.1527 18.7952 -8.7052 -5.1542 -13.5553 41.4845 -2.6236 5.6529 -29.4554 -2.5436 9.9168 -28.7077 1.1417 -2.0845 3.2753 3.8820 -2.5840 -2.3735 3.5542 -1.2624 -4.1606 18.7582 6.0891 6.5050 -22.4672 6.9983 -19.7954 -11.1084 3.8779 -5.1876 -0.0000 0.0000 0.0000 -88.1976 27.2978 16.2375 131.0246 -52.5738 -94.6418 -0.0000 0.0000 -26.2292 -6.2854 35.6069 -3.6692 -7.1250 0.0000 -0.0000 -45.1250 59.6015 -18.3126 -0.0000 0.0000 0.0000 84.0703 -7.3113 14.1656 -124.0782 55.1215 -89.0292 0.0000 -0.0000 -26.1042 -29.3161 -0.0174 0.0098 7.1250 -0.0000 -0.0000 -2.1691 -29.9962 -0.7946
